<?xml version="1.0" encoding="iso-8859-1"?>
<!-- Uploaded to: SVG Repo, www.svgrepo.com, Generator: SVG Repo Mixer Tools -->
<svg fill="#000000" height="800px" width="800px" version="1.1" id="Layer_1" xmlns="http://www.w3.org/2000/svg" xmlns:xlink="http://www.w3.org/1999/xlink" 
	 viewBox="0 0 512 512" xml:space="preserve">
<g>
	<g>
		<path d="M507.273,331.323c-0.008-3.027-0.825-6.23-2.487-9.043l-59.517-100.59c0,0-0.007,0.412-0.007-91.651
			c0-2.291-0.481-4.789-1.444-7.037L396.26,10.864c-6.149-14.501-26.751-14.47-32.887,0l-13.095,30.879H161.721l-13.096-30.879
			c-6.15-14.502-26.751-14.469-32.887,0L68.182,123.003c-0.966,2.252-1.444,4.705-1.444,7.037c0,93.132-0.007,89.974-0.007,91.651
			L7.213,322.281c-1.61,2.723-2.49,5.944-2.49,9.095v162.763c0,9.864,7.997,17.861,17.861,17.861c11.743,0,453.804,0,466.831,0
			c9.864,0,17.861-7.997,17.861-17.861V331.376C507.277,331.358,507.273,331.341,507.273,331.323z M458.091,313.514h-61.383
			l0.245-0.413l30.451-51.451L458.091,313.514z M379.817,63.586l20.607,48.592H359.21L379.817,63.586z M350.096,147.901h59.444
			v50.802h-59.444V147.901z M335.13,77.465l-14.721,34.713H191.591L176.87,77.465H335.13z M314.374,147.901v50.802H197.626v-50.802
			H314.374z M132.182,63.586l20.607,48.592h-41.216L132.182,63.586z M102.46,147.901h59.444v50.802H102.46V147.901z M84.594,261.65
			c0.273,0.461,30.298,51.192,30.695,51.864H53.906L84.594,261.65z M128.754,476.277H40.446v-127.04h88.309
			C128.754,362.37,128.754,461.26,128.754,476.277z M278.828,476.277H233.17v-22.829c0-12.589,10.242-22.829,22.829-22.829
			c12.587,0,22.829,10.242,22.829,22.829V476.277z M347.523,476.277h-32.971v-22.829c0-32.286-26.267-58.552-58.552-58.552
			c-32.285,0-58.552,26.267-58.552,58.552v22.829h-32.971V373.213h183.045V476.277z M347.522,337.49H164.477
			c0-5.916,0.503-10.151-2.491-15.211l-51.991-87.847c26.317,0,287.014,0,292.008,0l-51.991,87.847
			C347.003,327.365,347.522,331.596,347.522,337.49z M383.245,476.277c0-15.005,0-113.89,0-127.04h88.309v127.04H383.245z"/>
	</g>
</g>
</svg>