<?xml version="1.0" encoding="utf-8"?><!-- Uploaded to: SVG Repo, www.svgrepo.com, Generator: SVG Repo Mixer Tools -->
<svg width="800px" height="800px" viewBox="0 0 24 24" fill="none" xmlns="http://www.w3.org/2000/svg">
<path d="M16.6102 8.15967C19.3962 7.9671 21.3867 8.39361 21.6595 9.41183C22.0883 11.0122 18.1114 13.4684 12.7767 14.8978C7.44204 16.3272 2.76982 16.1886 2.34099 14.5882C2.0682 13.5702 3.57823 12.2058 6.08647 10.9798M16.6102 8.15967C15.5096 6.83986 13.8529 6 12.0001 6C9.03415 6 6.57085 8.15202 6.08647 10.9798M16.6102 8.15967C17.478 9.20024 18.0001 10.5392 18.0001 12C18.0001 15.3137 15.3138 18 12.0001 18C8.68637 18 6.00008 15.3137 6.00008 12C6.00008 11.6522 6.02967 11.3114 6.08647 10.9798" stroke="#000000" stroke-width="2" stroke-linecap="round" stroke-linejoin="round"/>
</svg>